<?xml version="1.0" encoding="UTF-8"?>
<svg viewBox="0 0 228 44" xmlns="http://www.w3.org/2000/svg">
<rect y="11" width="27" height="22" fill="#0D75FF" fill-opacity=".9"/>
<rect x="27" width="27" height="22" fill="#0D75FF"/>
<rect x="21" y="22" width="27" height="22" fill="#0D75FF" fill-opacity=".8"/>
<path d="m74.68 36.132c-1.32 0-2.316-0.228-2.988-0.684-0.672-0.432-1.008-1.164-1.008-2.196 0-0.072 0.06-0.108 0.18-0.108 0.168 0 0.468 0.06 0.9 0.18s1.26 0.18 2.484 0.18c2.064 0 3.972-0.228 5.724-0.684 1.752-0.48 3.264-1.128 4.536-1.944 1.296-0.816 2.292-1.728 2.988-2.736 0.72-1.032 1.08-2.088 1.08-3.168 0-0.984-0.276-1.776-0.828-2.376s-1.284-1.056-2.196-1.368c-0.888-0.312-1.86-0.516-2.916-0.612-1.056-0.12-2.1-0.18-3.132-0.18-0.456 0-0.924 0.012-1.404 0.036h-1.296c-0.552 1.944-1.092 3.9-1.62 5.868s-1.068 3.876-1.62 5.724c-0.6 0-1.104-0.168-1.512-0.504s-0.612-0.744-0.612-1.224c0-0.288 0.06-0.624 0.18-1.008s0.228-0.732 0.324-1.044c0.144-0.48 0.396-1.284 0.756-2.412s0.792-2.448 1.296-3.96c0.528-1.512 1.104-3.096 1.728-4.752s1.26-3.276 1.908-4.86c0.672-1.584 1.32-2.988 1.944-4.212-1.008 0.168-1.86 0.408-2.556 0.72-0.672 0.312-1.2 0.6-1.584 0.864-0.384 0.24-0.66 0.36-0.828 0.36s-0.408-0.12-0.72-0.36c-0.288-0.24-0.432-0.444-0.432-0.612 1.2-0.504 2.448-0.96 3.744-1.368 1.32-0.408 2.916-0.612 4.788-0.612 0.792 0 1.668 0.072 2.628 0.216 0.96 0.12 1.872 0.384 2.736 0.792 0.864 0.384 1.572 0.96 2.124 1.728 0.552 0.744 0.828 1.74 0.828 2.988 0 1.176-0.252 2.184-0.756 3.024-0.504 0.816-1.164 1.5-1.98 2.052-0.816 0.528-1.704 0.948-2.664 1.26s-1.908 0.54-2.844 0.684c1.776 0.096 3.204 0.348 4.284 0.756 1.104 0.408 1.932 0.9 2.484 1.476 0.576 0.552 0.96 1.14 1.152 1.764s0.288 1.224 0.288 1.8c0 1.392-0.36 2.652-1.08 3.78s-1.668 2.112-2.844 2.952-2.46 1.536-3.852 2.088c-1.392 0.576-2.772 0.996-4.14 1.26-1.368 0.288-2.592 0.432-3.672 0.432zm2.34-16.488c1.32-0.048 2.628-0.192 3.924-0.432 1.32-0.264 2.52-0.672 3.6-1.224s1.944-1.272 2.592-2.16c0.672-0.888 1.008-1.992 1.008-3.312 0-1.248-0.3-2.208-0.9-2.88-0.576-0.672-1.332-1.14-2.268-1.404-0.912-0.264-1.884-0.396-2.916-0.396h-0.36c-0.096 0-0.204 0.012-0.324 0.036-0.864 1.68-1.656 3.528-2.376 5.544-0.696 2.016-1.356 4.092-1.98 6.228zm17.366 14.508c-1.032 0-1.764-0.324-2.196-0.972-0.432-0.624-0.648-1.392-0.648-2.304 0-0.744 0.12-1.512 0.36-2.304s0.552-1.536 0.936-2.232c0.408-0.696 0.852-1.26 1.332-1.692 0.504-0.432 1.008-0.648 1.512-0.648 0.216 0 0.468 0.06 0.756 0.18-0.216 0.192-0.48 0.552-0.792 1.08-0.288 0.504-0.564 1.092-0.828 1.764-0.264 0.648-0.492 1.296-0.684 1.944-0.168 0.648-0.252 1.2-0.252 1.656 0 0.72 0.12 1.248 0.36 1.584 0.24 0.312 0.552 0.468 0.936 0.468 0.504 0 1.104-0.264 1.8-0.792 0.696-0.552 1.38-1.248 2.052-2.088-0.672-0.552-1.2-1.272-1.584-2.16-0.36-0.912-0.54-1.836-0.54-2.772 0-0.792 0.132-1.536 0.396-2.232 0.288-0.696 0.696-1.248 1.224-1.656 0.528-0.432 1.164-0.648 1.9077-0.648 0.984 0 1.644 0.264 1.98 0.792s0.504 1.188 0.504 1.98c0 0.936-0.228 1.98-0.684 3.132-0.456 1.128-1.032 2.22-1.728 3.276 0.432 0.24 0.888 0.36 1.368 0.36 0.552 0 1.224-0.18 2.016-0.54 0.792-0.384 1.404-1.068 1.836-2.052l0.432 0.36c-0.48 1.128-1.164 1.932-2.052 2.412-0.864 0.456-1.692 0.684-2.484 0.684-0.648 0-1.224-0.12-1.7277-0.36-0.816 1.08-1.716 1.98-2.7 2.7-0.96 0.72-1.896 1.08-2.808 1.08zm5.292-5.292c0.5997-0.888 1.0917-1.812 1.4757-2.772 0.408-0.984 0.612-1.908 0.612-2.772 0-0.696-0.108-1.2-0.324-1.512-0.192-0.336-0.444-0.504-0.756-0.504-0.48 0-0.9717 0.348-1.4757 1.044s-0.756 1.572-0.756 2.628c0 0.696 0.096 1.404 0.288 2.124 0.216 0.696 0.528 1.284 0.936 1.764zm7.8567 5.292c-1.032 0-1.764-0.324-2.196-0.972-0.432-0.624-0.648-1.392-0.648-2.304 0-0.744 0.12-1.512 0.36-2.304s0.552-1.536 0.936-2.232c0.408-0.696 0.852-1.26 1.332-1.692 0.504-0.432 1.008-0.648 1.512-0.648 0.216 0 0.468 0.06 0.756 0.18-0.216 0.192-0.48 0.552-0.792 1.08-0.288 0.504-0.564 1.092-0.828 1.764-0.264 0.648-0.492 1.296-0.684 1.944-0.168 0.648-0.252 1.2-0.252 1.656 0 0.72 0.12 1.248 0.36 1.584 0.24 0.312 0.552 0.468 0.936 0.468 0.504 0 1.104-0.264 1.8-0.792 0.696-0.552 1.38-1.248 2.052-2.088-0.672-0.552-1.2-1.272-1.584-2.16-0.36-0.912-0.54-1.836-0.54-2.772 0-0.792 0.132-1.536 0.396-2.232 0.288-0.696 0.696-1.248 1.224-1.656 0.528-0.432 1.164-0.648 1.908-0.648 0.984 0 1.644 0.264 1.98 0.792s0.504 1.188 0.504 1.98c0 0.936-0.228 1.98-0.684 3.132-0.456 1.128-1.032 2.22-1.728 3.276 0.432 0.24 0.888 0.36 1.368 0.36 0.552 0 1.224-0.18 2.016-0.54 0.792-0.384 1.404-1.068 1.836-2.052l0.432 0.36c-0.48 1.128-1.164 1.932-2.052 2.412-0.864 0.456-1.692 0.684-2.484 0.684-0.648 0-1.224-0.12-1.728-0.36-0.816 1.08-1.716 1.98-2.7 2.7-0.96 0.72-1.896 1.08-2.808 1.08zm5.292-5.292c0.6-0.888 1.092-1.812 1.476-2.772 0.408-0.984 0.612-1.908 0.612-2.772 0-0.696-0.108-1.2-0.324-1.512-0.192-0.336-0.444-0.504-0.756-0.504-0.48 0-0.972 0.348-1.476 1.044s-0.756 1.572-0.756 2.628c0 0.696 0.096 1.404 0.288 2.124 0.216 0.696 0.528 1.284 0.936 1.764zm16.064 5.508c-0.672 0-1.248-0.228-1.728-0.684s-0.864-1.032-1.152-1.728c-0.264-0.696-0.468-1.404-0.612-2.124-0.12-0.744-0.18-1.392-0.18-1.944 0.264 0 0.648-0.06 1.152-0.18 0.504-0.144 1.02-0.348 1.548-0.612 0.528-0.288 0.972-0.648 1.332-1.08 0.384-0.456 0.576-0.984 0.576-1.584 0-0.504-0.18-0.9-0.54-1.188s-0.78-0.432-1.26-0.432c-0.744 0-1.44 0.264-2.088 0.792-0.648 0.504-1.236 1.176-1.764 2.016-0.504 0.816-0.96 1.692-1.368 2.628s-0.756 1.824-1.044 2.664-0.528 1.536-0.72 2.088c-0.144 0.432-0.348 0.72-0.612 0.864-0.264 0.168-0.54 0.252-0.828 0.252-0.408 0-0.708-0.168-0.9-0.504-0.168-0.336-0.276-0.756-0.324-1.26-0.024-0.528-0.036-1.068-0.036-1.62 0-1.248 0.204-2.688 0.612-4.32s0.948-3.324 1.62-5.076c0.696-1.776 1.452-3.492 2.268-5.148s1.632-3.156 2.448-4.5 1.572-2.412 2.268-3.204 1.26-1.188 1.692-1.188c0.336 0 0.6 0.228 0.792 0.684 0.216 0.456 0.324 1.008 0.324 1.656 0 0.816-0.18 1.74-0.54 2.772-0.36 1.008-0.876 2.028-1.548 3.06-0.648 1.032-1.428 2.004-2.34 2.916-0.888 0.912-1.86 1.692-2.916 2.34-0.792 1.944-1.392 3.84-1.8 5.688-0.384 1.824-0.576 3.36-0.576 4.608 0.384-0.96 0.84-2.016 1.368-3.168 0.552-1.152 1.176-2.256 1.872-3.312s1.452-1.92 2.268-2.592 1.668-1.008 2.556-1.008 1.644 0.312 2.268 0.936 0.936 1.38 0.936 2.268c0 0.768-0.204 1.428-0.612 1.98-0.384 0.528-0.864 0.96-1.44 1.296-0.552 0.312-1.116 0.552-1.692 0.72-0.552 0.144-1.008 0.216-1.368 0.216 0.024 0.192 0.096 0.54 0.216 1.044s0.288 1.032 0.504 1.584c0.24 0.552 0.528 1.032 0.864 1.44 0.336 0.384 0.744 0.576 1.224 0.576 1.032 0 1.992-0.564 2.88-1.692 0.888-1.152 1.704-2.544 2.448-4.176l0.36 0.36c-0.336 1.176-0.852 2.292-1.548 3.348-0.696 1.032-1.476 1.872-2.34 2.52-0.84 0.672-1.68 1.008-2.52 1.008zm-5.256-15.084c1.104-0.888 2.064-1.896 2.88-3.024 0.84-1.128 1.488-2.208 1.944-3.24 0.456-1.056 0.684-1.884 0.684-2.484 0-0.216-0.036-0.324-0.108-0.324-0.24 0-0.66 0.42-1.26 1.26-0.576 0.84-1.236 1.956-1.98 3.348-0.744 1.368-1.464 2.856-2.16 4.464zm17.939 16.848c-1.296 0-2.52-0.24-3.672-0.72-1.152-0.456-2.088-1.164-2.808-2.124-0.696-0.96-1.044-2.16-1.044-3.6 0-1.248 0.24-2.22 0.72-2.916 0.504-0.696 1.116-1.188 1.836-1.476s1.404-0.432 2.052-0.432c-0.648 0.696-1.14 1.464-1.476 2.304s-0.504 1.68-0.504 2.52c0 0.888 0.192 1.716 0.576 2.484 0.408 0.768 1.02 1.38 1.836 1.836 0.816 0.48 1.848 0.72 3.096 0.72 1.08 0 2.136-0.204 3.168-0.612 1.032-0.384 1.872-0.96 2.52-1.728 0.672-0.792 1.008-1.764 1.008-2.916 0-1.032-0.264-1.92-0.792-2.664s-1.212-1.404-2.052-1.98c-0.816-0.576-1.692-1.128-2.628-1.656s-1.824-1.08-2.664-1.656c-0.816-0.6-1.488-1.284-2.016-2.052s-0.792-1.692-0.792-2.772c0-1.008 0.24-2.064 0.72-3.168s1.164-2.148 2.052-3.132c0.912-0.984 1.992-1.776 3.24-2.376 1.272-0.624 2.688-0.936 4.248-0.936 1.416 0 2.4 0.348 2.952 1.044 0.552 0.672 0.828 1.524 0.828 2.556 0 0.864-0.156 1.8-0.468 2.808-0.288 0.984-0.648 1.932-1.08 2.844-0.432 0.888-0.84 1.644-1.224 2.268-0.432-0.096-0.744-0.276-0.936-0.54-0.168-0.288-0.252-0.624-0.252-1.008 0-0.504 0.108-1.08 0.324-1.728s0.456-1.32 0.72-2.016c0.288-0.696 0.54-1.368 0.756-2.016 0.216-0.672 0.324-1.272 0.324-1.8 0-0.48-0.144-0.852-0.432-1.116-0.288-0.288-0.816-0.432-1.584-0.432-1.128 0-2.172 0.264-3.132 0.792s-1.8 1.212-2.52 2.052c-0.72 0.816-1.284 1.68-1.692 2.592-0.384 0.912-0.576 1.74-0.576 2.484 0 0.888 0.252 1.656 0.756 2.304 0.528 0.624 1.2 1.2 2.016 1.728 0.816 0.504 1.68 1.02 2.592 1.548 0.936 0.504 1.812 1.068 2.628 1.692s1.476 1.368 1.98 2.232c0.528 0.84 0.792 1.872 0.792 3.096 0 1.248-0.276 2.352-0.828 3.312-0.552 0.936-1.296 1.728-2.232 2.376-0.912 0.648-1.92 1.14-3.024 1.476s-2.208 0.504-3.312 0.504zm13.684-1.764c-0.456 0-0.816-0.384-1.08-1.152s-0.396-1.632-0.396-2.592c0-1.152 0.192-2.52 0.576-4.104s0.888-3.252 1.512-5.004 1.32-3.468 2.088-5.148c0.792-1.68 1.596-3.204 2.412-4.572s1.584-2.46 2.304-3.276 1.344-1.224 1.872-1.224c0.432 0 0.732 0.264 0.9 0.792 0.192 0.504 0.288 0.996 0.288 1.476 0 0.672-0.156 1.488-0.468 2.448-0.288 0.96-0.696 1.992-1.224 3.096-0.528 1.08-1.14 2.148-1.836 3.204s-1.452 2.028-2.268 2.916c-0.816 0.864-1.644 1.548-2.484 2.052-0.288 0.696-0.54 1.476-0.756 2.34-0.192 0.864-0.336 1.716-0.432 2.556-0.096 0.816-0.144 1.548-0.144 2.196v0.684c0.024 0.192 0.048 0.372 0.072 0.54 0.576-1.656 1.224-3.192 1.944-4.608s1.524-2.556 2.412-3.42c0.912-0.864 1.896-1.296 2.952-1.296 0.984 0 1.68 0.348 2.088 1.044 0.432 0.672 0.648 1.404 0.648 2.196 0 0.744-0.132 1.464-0.396 2.16-0.24 0.696-0.492 1.368-0.756 2.016s-0.396 1.272-0.396 1.872c0 0.48 0.096 0.828 0.288 1.044 0.216 0.216 0.48 0.324 0.792 0.324 0.552 0 1.164-0.264 1.836-0.792 0.696-0.528 1.38-1.224 2.052-2.088 0.672-0.888 1.248-1.848 1.728-2.88l0.468 0.432c-0.504 1.176-1.116 2.244-1.836 3.204-0.72 0.936-1.512 1.68-2.376 2.232s-1.764 0.828-2.7 0.828c-0.816 0-1.44-0.216-1.872-0.648-0.408-0.432-0.612-0.972-0.612-1.62 0-0.504 0.096-1.068 0.288-1.692s0.372-1.26 0.54-1.908c0.192-0.648 0.288-1.26 0.288-1.836 0-0.624-0.132-1.068-0.396-1.332s-0.588-0.396-0.972-0.396c-0.6 0-1.14 0.24-1.62 0.72s-0.924 1.104-1.332 1.872c-0.384 0.744-0.756 1.536-1.116 2.376-0.336 0.84-0.66 1.644-0.972 2.412-0.312 0.744-0.624 1.356-0.936 1.836s-0.636 0.72-0.972 0.72zm2.664-12.492c0.672-0.528 1.32-1.2 1.944-2.016 0.648-0.816 1.248-1.68 1.8-2.592 0.552-0.936 1.044-1.848 1.476-2.736s0.768-1.692 1.008-2.412 0.36-1.26 0.36-1.62c0-0.192-0.048-0.288-0.144-0.288-0.168 0-0.516 0.336-1.044 1.008-0.504 0.648-1.092 1.524-1.764 2.628s-1.332 2.352-1.98 3.744-1.2 2.82-1.656 4.284zm16.654 12.708c-1.464 0-2.568-0.408-3.312-1.224-0.721-0.792-1.081-1.776-1.081-2.952 0-1.08 0.264-2.22 0.793-3.42 0.552-1.2 1.272-2.328 2.16-3.384 0.912-1.056 1.908-1.908 2.988-2.556 1.08-0.672 2.148-1.008 3.204-1.008 0.552 0 1.056 0.144 1.512 0.432 0.48 0.288 0.72 0.876 0.72 1.764 0 0.912-0.276 1.776-0.828 2.592-0.528 0.792-1.236 1.5-2.124 2.124-0.864 0.624-1.824 1.14-2.88 1.548-1.032 0.384-2.064 0.624-3.096 0.72-0.048 0.24-0.084 0.468-0.108 0.684s-0.036 0.42-0.036 0.612c0 0.744 0.192 1.44 0.575 2.088 0.409 0.624 1.165 0.936 2.269 0.936 1.032 0 2.052-0.288 3.06-0.864 1.008-0.6 1.944-1.38 2.808-2.34s1.596-2.016 2.196-3.168l0.432 0.324c-0.648 1.44-1.476 2.688-2.484 3.744-0.984 1.056-2.064 1.872-3.24 2.448-1.152 0.6-2.328 0.9-3.528 0.9zm-1.764-6.048c0.648-0.216 1.38-0.528 2.196-0.936 0.816-0.432 1.596-0.936 2.34-1.512 0.768-0.576 1.392-1.212 1.872-1.908 0.504-0.696 0.756-1.428 0.756-2.196 0-0.264-0.048-0.468-0.144-0.612s-0.3-0.216-0.612-0.216c-0.576 0-1.188 0.228-1.836 0.684-0.648 0.432-1.272 1.008-1.872 1.728s-1.14 1.512-1.62 2.376-0.84 1.728-1.08 2.592zm12.852 5.544c-1.032 0-1.776-0.36-2.232-1.08-0.432-0.696-0.648-1.572-0.648-2.628 0-1.152 0.216-2.52 0.648-4.104s0.996-3.252 1.692-5.004c0.72-1.752 1.5-3.456 2.34-5.112 0.84-1.68 1.68-3.204 2.52-4.572s1.608-2.46 2.304-3.276c0.72-0.816 1.284-1.224 1.692-1.224 0.264 0 0.48 0.156 0.648 0.468 0.168 0.288 0.3 0.648 0.396 1.08 0.096 0.408 0.144 0.78 0.144 1.116 0 0.648-0.168 1.5-0.504 2.556-0.312 1.032-0.768 2.196-1.368 3.492-0.576 1.272-1.272 2.568-2.088 3.888-0.792 1.296-1.668 2.544-2.628 3.744-0.936 1.2-1.932 2.232-2.988 3.096-0.144 0.648-0.264 1.284-0.36 1.908-0.072 0.6-0.108 1.176-0.108 1.728 0 1.848 0.528 2.772 1.584 2.772 0.648 0 1.284-0.288 1.908-0.864 0.648-0.576 1.248-1.296 1.8-2.16 0.576-0.888 1.068-1.8 1.476-2.736l0.54 0.288c-0.96 2.04-2.004 3.66-3.132 4.86-1.128 1.176-2.34 1.764-3.636 1.764zm0.252-8.784c0.84-0.84 1.656-1.8 2.448-2.88 0.792-1.104 1.524-2.244 2.196-3.42 0.696-1.176 1.308-2.316 1.836-3.42s0.936-2.088 1.224-2.952c0.288-0.888 0.432-1.572 0.432-2.052 0-0.24-0.036-0.396-0.108-0.468-0.048-0.072-0.096-0.108-0.144-0.108-0.192 0-0.528 0.312-1.008 0.936-0.456 0.6-0.996 1.416-1.62 2.448s-1.26 2.208-1.908 3.528-1.272 2.7-1.872 4.14c-0.576 1.44-1.068 2.856-1.476 4.248zm8.328 9.36c-2.136 0-3.204-1.188-3.204-3.564 0-1.056 0.192-2.352 0.576-3.888 0.408-1.56 0.912-3.156 1.512-4.788-0.24-0.048-0.468-0.084-0.684-0.108-0.216-0.048-0.42-0.108-0.612-0.18v-0.648c0.192 0.024 0.42 0.048 0.684 0.072s0.564 0.048 0.9 0.072c0.504-1.296 1.044-2.544 1.62-3.744 0.576-1.224 1.14-2.304 1.692-3.24 0.576-0.96 1.116-1.716 1.62-2.268 0.528-0.576 0.972-0.864 1.332-0.864 0.192 0 0.36 0.072 0.504 0.216 0.168 0.12 0.252 0.312 0.252 0.576 0 0.408-0.252 1.08-0.756 2.016-0.504 0.912-1.128 2.004-1.872 3.276s-1.464 2.652-2.16 4.14h1.332c0.792 0 1.62-0.012 2.484-0.036 0.888-0.024 1.776-0.084 2.664-0.18v0.648c-2.616 0.288-4.728 0.432-6.336 0.432h-0.54c-0.552 1.272-1.02 2.58-1.404 3.924s-0.576 2.652-0.576 3.924c0 1.032 0.156 1.776 0.468 2.232 0.312 0.432 0.828 0.648 1.548 0.648 1.248 0 2.472-0.552 3.672-1.656s2.256-2.604 3.168-4.5l0.468 0.36c-0.576 1.344-1.308 2.556-2.196 3.636-0.864 1.08-1.824 1.932-2.88 2.556s-2.148 0.936-3.276 0.936zm11.093-0.072c-1.464 0-2.568-0.408-3.312-1.224-0.72-0.792-1.08-1.776-1.08-2.952 0-1.08 0.264-2.22 0.792-3.42 0.552-1.2 1.272-2.328 2.16-3.384 0.912-1.056 1.908-1.908 2.988-2.556 1.08-0.672 2.148-1.008 3.204-1.008 0.552 0 1.056 0.144 1.512 0.432 0.48 0.288 0.72 0.876 0.72 1.764 0 0.912-0.276 1.776-0.828 2.592-0.528 0.792-1.236 1.5-2.124 2.124-0.864 0.624-1.824 1.14-2.88 1.548-1.032 0.384-2.064 0.624-3.096 0.72-0.048 0.24-0.084 0.468-0.108 0.684s-0.036 0.42-0.036 0.612c0 0.744 0.192 1.44 0.576 2.088 0.408 0.624 1.164 0.936 2.268 0.936 1.032 0 2.052-0.288 3.06-0.864 1.008-0.6 1.944-1.38 2.808-2.34s1.596-2.016 2.196-3.168l0.432 0.324c-0.648 1.44-1.476 2.688-2.484 3.744-0.984 1.056-2.064 1.872-3.24 2.448-1.152 0.6-2.328 0.9-3.528 0.9zm-1.764-6.048c0.648-0.216 1.38-0.528 2.196-0.936 0.816-0.432 1.596-0.936 2.34-1.512 0.768-0.576 1.392-1.212 1.872-1.908 0.504-0.696 0.756-1.428 0.756-2.196 0-0.264-0.048-0.468-0.144-0.612s-0.3-0.216-0.612-0.216c-0.576 0-1.188 0.228-1.836 0.684-0.648 0.432-1.272 1.008-1.872 1.728s-1.14 1.512-1.62 2.376-0.84 1.728-1.08 2.592zm16.093 5.4c-0.816 0-1.464-0.216-1.944-0.648-0.456-0.432-0.684-0.996-0.684-1.692 0-0.72 0.168-1.476 0.504-2.268s0.66-1.572 0.972-2.34c0.336-0.792 0.504-1.5 0.504-2.124 0-0.768-0.228-1.332-0.684-1.692-0.432-0.384-0.876-0.732-1.332-1.044-0.552 1.416-1.128 2.76-1.728 4.032s-1.092 2.232-1.476 2.88l-0.324-0.612c0.336-0.624 0.768-1.536 1.296-2.736 0.552-1.2 1.092-2.568 1.62-4.104-0.24-0.24-0.36-0.528-0.36-0.864 0-0.72 0.204-1.308 0.612-1.764s0.708-0.684 0.9-0.684c0.264 0 0.408 0.12 0.432 0.36 0.048 0.216 0.072 0.384 0.072 0.504s-0.072 0.36-0.216 0.72c-0.12 0.336-0.18 0.54-0.18 0.612 0 0.336 0.18 0.648 0.539 0.936 0.385 0.264 0.817 0.576 1.297 0.936 0.48 0.336 0.9 0.756 1.26 1.26 0.384 0.48 0.576 1.104 0.576 1.872 0 0.72-0.156 1.452-0.468 2.196-0.288 0.744-0.588 1.452-0.9 2.124-0.288 0.672-0.432 1.26-0.432 1.764 0 0.432 0.108 0.72 0.324 0.864s0.468 0.216 0.756 0.216c0.576 0 1.164-0.18 1.764-0.54 0.624-0.36 1.224-0.816 1.8-1.368s1.092-1.128 1.548-1.728c0.456-0.624 0.792-1.2 1.008-1.728l0.468 0.36c-0.456 1.008-1.08 2.004-1.872 2.988-0.792 0.96-1.68 1.752-2.664 2.376-0.96 0.624-1.956 0.936-2.988 0.936z"/>
</svg>
